<svg width="4491" height="783" viewBox="0 0 4491 783" fill="none" xmlns="http://www.w3.org/2000/svg">
<path d="M478.14 104.67C524.734 104.67 560.688 183.896 582.831 236.864C597.324 271.533 627.529 328.509 662.967 362.733C707.87 256.6 739.957 0.364208 784.297 0.36377C841.437 0.364034 944.883 176.926 944.883 389.921C944.883 603.681 841.51 782.281 784.303 782.282C740.054 782.281 707.993 526.763 663.262 419.635C627.631 453.81 597.233 511.12 582.679 545.934C560.536 598.902 524.582 678.128 477.988 678.128C431.394 678.128 395.441 598.902 373.297 545.934C356.984 506.912 320.766 439.628 279.585 408.338C255.947 430.276 235.69 468.372 226.089 491.338C211.761 525.612 188.497 576.876 158.348 576.876C128.199 576.876 104.934 525.612 90.6065 491.338C76.7593 458.215 40.178 393.511 3.78818 391.302C2.52556 391.379 1.26253 391.38 0 391.302C1.26186 391.224 2.5249 391.225 3.78818 391.302C40.1391 389.099 76.1501 324.507 89.997 291.383C104.325 257.11 127.589 205.846 157.738 205.846C187.887 205.846 211.151 257.11 225.479 291.383C235.133 314.476 255.559 352.864 279.363 374.743C320.699 343.576 357.087 276.004 373.449 236.864C395.592 183.896 431.546 104.67 478.14 104.67Z" fill="#1B1B1B"/>
<path d="M1519.74 91.3013C1592.52 91.3013 1656.41 103.247 1711.42 127.137C1766.98 150.472 1810.04 184.086 1840.59 227.978C1871.71 271.87 1887.26 323.263 1887.26 382.156C1887.26 441.05 1871.99 492.72 1841.43 537.168C1810.87 581.06 1767.81 614.952 1712.25 638.842C1656.69 662.733 1592.24 674.678 1518.9 674.678H1248.88V91.3013H1519.74ZM1514.74 595.506C1562.52 595.506 1604.47 587.172 1640.58 570.504C1677.25 553.28 1705.58 528.834 1725.59 497.165C1746.14 464.94 1756.42 427.16 1756.42 383.823C1756.42 340.487 1746.14 302.706 1725.59 270.481C1705.58 238.257 1677.25 213.533 1640.58 196.309C1603.91 178.53 1561.41 169.641 1513.07 169.641H1378.06V595.506H1514.74Z" fill="#1B1B1B"/>
<path d="M2443.63 446.328C2443.63 458.551 2443.07 467.996 2441.96 474.663H2063.6C2064.71 517.444 2078.04 551.336 2103.6 576.338C2129.16 601.34 2161.94 613.841 2201.94 613.841C2234.17 613.841 2261.95 605.507 2285.28 588.839C2308.62 572.171 2323.06 550.78 2328.62 524.667L2439.46 531.334C2435.02 562.448 2421.96 590.228 2400.29 614.674C2378.62 638.565 2350.01 657.455 2314.45 671.345C2279.45 684.679 2240.28 691.346 2196.94 691.346C2146.94 691.346 2102.21 682.179 2062.77 663.844C2023.87 644.954 1993.32 618.285 1971.09 583.838C1948.87 549.391 1937.76 509.11 1937.76 462.996C1937.76 416.881 1948.87 376.878 1971.09 342.987C1993.32 308.54 2023.87 282.149 2062.77 263.814C2101.66 245.48 2145.27 236.312 2193.61 236.312C2241.39 236.312 2284.17 244.924 2321.95 262.147C2359.73 279.371 2389.46 304.095 2411.13 336.32C2432.79 367.989 2443.63 404.658 2443.63 446.328ZM2321.12 417.159C2321.12 383.823 2309.17 356.043 2285.28 333.82C2261.39 311.596 2231.11 300.484 2194.44 300.484C2158.33 300.484 2128.33 311.318 2104.44 332.986C2080.54 354.654 2067.21 382.99 2064.43 417.992L2321.12 417.159Z" fill="#1B1B1B"/>
<path d="M2764.42 691.346C2713.86 691.346 2668.3 682.457 2627.74 664.678C2587.18 646.343 2554.96 619.952 2531.07 585.505C2507.73 551.058 2496.07 510.777 2496.07 464.663C2496.07 418.548 2507.73 378.267 2531.07 343.82C2554.4 309.373 2586.35 282.982 2626.91 264.648C2667.47 245.757 2713.03 236.312 2763.59 236.312C2810.81 236.312 2852.76 244.091 2889.43 259.647C2926.65 275.204 2956.1 296.872 2977.77 324.652C2999.44 352.432 3011.66 383.545 3014.44 417.992L2896.93 422.993C2893.04 390.768 2878.6 364.377 2853.59 343.82C2829.15 322.708 2799.14 312.151 2763.59 312.151C2736.36 312.151 2711.92 318.541 2690.25 331.319C2669.13 344.098 2652.47 362.155 2640.24 385.49C2628.58 408.27 2622.74 433.827 2622.74 462.162C2622.74 491.053 2628.58 516.889 2640.24 539.668C2652.47 561.892 2669.41 579.393 2691.08 592.172C2713.3 604.951 2738.31 611.34 2766.09 611.34C2802.2 611.34 2832.76 601.34 2857.76 581.338C2883.32 561.337 2898.04 535.224 2901.93 502.999L3018.61 506.332C3015.83 540.779 3003.6 572.171 2981.94 600.506C2960.27 628.286 2930.82 650.51 2893.6 667.178C2856.37 683.29 2813.31 691.346 2764.42 691.346Z" fill="#1B1B1B"/>
<path d="M3574.9 446.328C3574.9 458.551 3574.34 467.996 3573.23 474.663H3194.87C3195.98 517.444 3209.31 551.336 3234.87 576.338C3260.43 601.34 3293.21 613.841 3333.21 613.841C3365.44 613.841 3393.22 605.507 3416.55 588.839C3439.89 572.171 3454.33 550.78 3459.89 524.667L3570.73 531.334C3566.29 562.448 3553.23 590.228 3531.56 614.674C3509.89 638.565 3481.28 657.455 3445.72 671.345C3410.72 684.679 3371.55 691.346 3328.21 691.346C3278.21 691.346 3233.48 682.179 3194.04 663.844C3155.14 644.954 3124.59 618.285 3102.36 583.838C3080.14 549.391 3069.03 509.11 3069.03 462.996C3069.03 416.881 3080.14 376.878 3102.36 342.987C3124.59 308.54 3155.14 282.149 3194.04 263.814C3232.93 245.48 3276.54 236.312 3324.88 236.312C3372.66 236.312 3415.44 244.924 3453.22 262.147C3491 279.371 3520.73 304.095 3542.4 336.32C3564.06 367.989 3574.9 404.658 3574.9 446.328ZM3452.39 417.159C3452.39 383.823 3440.44 356.043 3416.55 333.82C3392.66 311.596 3362.38 300.484 3325.71 300.484C3289.6 300.484 3259.6 311.318 3235.71 332.986C3211.81 354.654 3198.48 382.99 3195.7 417.992L3452.39 417.159Z" fill="#1B1B1B"/>
<path d="M3933.83 244.646C3991.06 244.646 4036.06 261.87 4068.84 296.317C4101.62 330.764 4118.01 378.267 4118.01 438.827V674.678H3994.67V452.162C3994.67 412.159 3984.95 381.045 3965.5 358.821C3946.61 336.042 3919.94 324.652 3885.49 324.652C3851.05 324.652 3823.82 336.042 3803.82 358.821C3784.38 381.045 3774.65 412.436 3774.65 452.995V674.678H3651.31V252.98H3772.99L3771.32 349.654H3777.15C3787.71 316.874 3806.88 291.316 3834.66 272.982C3862.44 254.091 3895.49 244.646 3933.83 244.646Z" fill="#1B1B1B"/>
<path d="M4400.28 681.346C4350.27 681.346 4310.55 667.178 4281.1 638.842C4252.21 609.951 4237.77 567.17 4237.77 510.499V328.819H4156.93V252.98H4202.76C4218.32 252.98 4230.27 248.535 4238.6 239.646C4246.93 230.201 4251.1 216.866 4251.1 199.643V141.305H4376.11V159.64C4376.11 184.642 4372.22 204.921 4364.44 220.478C4357.22 235.479 4346.11 244.924 4331.11 248.813V252.98H4490.28V328.819H4360.28V494.665C4360.28 525.778 4367.22 549.669 4381.11 566.337C4395.56 583.005 4415.83 591.339 4441.95 591.339C4458.06 591.339 4474.17 589.394 4490.28 585.505L4488.62 673.012C4458.06 678.568 4428.61 681.346 4400.28 681.346Z" fill="#1B1B1B"/>
</svg>
