<svg width="824" height="683" viewBox="0 0 824 683" fill="none" xmlns="http://www.w3.org/2000/svg">
<path d="M416.969 91.3414C457.603 91.3414 488.956 160.443 508.267 206.643C520.906 236.881 547.246 286.577 578.151 316.428C617.309 223.856 645.291 0.36403 683.958 0.363647C733.788 0.363878 824 154.364 824 340.141C824 526.585 733.852 682.363 683.964 682.364C645.375 682.363 617.416 459.496 578.408 366.058C547.335 395.866 520.827 445.852 508.135 476.218C488.824 522.417 457.47 591.519 416.837 591.519C376.204 591.519 344.85 522.417 325.54 476.218C311.314 442.182 279.729 383.496 243.816 356.205C223.203 375.339 205.537 408.567 197.164 428.599C184.669 458.493 164.382 503.205 138.09 503.205C111.798 503.205 91.5097 458.493 79.0148 428.599C66.9392 399.708 35.0379 343.272 3.30358 341.346C2.20248 341.412 1.10102 341.414 0 341.346C1.10043 341.278 2.20191 341.279 3.30358 341.346C35.0039 339.424 66.4079 283.086 78.4833 254.195C90.9782 224.301 111.266 179.588 137.558 179.588C163.85 179.588 184.138 224.301 196.633 254.195C205.051 274.337 222.865 307.819 243.623 326.902C279.671 299.718 311.403 240.781 325.672 206.643C344.982 160.443 376.336 91.3414 416.969 91.3414Z" fill="url(#paint0_linear_4_2696)"/>
<defs>
<linearGradient id="paint0_linear_4_2696" x1="23" y1="341.364" x2="836" y2="325.364" gradientUnits="userSpaceOnUse">
<stop stop-color="#CAB0FF"/>
<stop offset="0.458959" stop-color="#9969FF"/>
<stop offset="1" stop-color="#5C1FFF" stop-opacity="0.97"/>
</linearGradient>
</defs>
</svg>
