<svg width="824" height="683" viewBox="0 0 824 683" fill="none" xmlns="http://www.w3.org/2000/svg">
<path d="M416.969 91.3415C457.603 91.3415 488.956 160.443 508.267 206.643C520.906 236.882 547.246 286.577 578.151 316.428C617.309 223.857 645.291 0.364152 683.958 0.36377C733.788 0.364 824 154.364 824 340.142C824 526.585 733.852 682.364 683.964 682.364C645.375 682.363 617.416 459.497 578.408 366.058C547.335 395.866 520.827 445.852 508.135 476.218C488.824 522.418 457.47 591.519 416.837 591.519C376.204 591.519 344.85 522.418 325.54 476.218C311.314 442.182 279.729 383.496 243.816 356.205C223.203 375.339 205.537 408.567 197.164 428.599C184.669 458.493 164.382 503.206 138.09 503.206C111.798 503.206 91.5097 458.493 79.0148 428.599C66.9392 399.708 35.0379 343.272 3.30358 341.346C2.20248 341.413 1.10102 341.414 0 341.346C1.10043 341.278 2.20191 341.279 3.30358 341.346C35.0039 339.424 66.4079 283.086 78.4833 254.195C90.9782 224.301 111.266 179.589 137.558 179.589C163.85 179.589 184.138 224.301 196.633 254.195C205.051 274.337 222.865 307.819 243.623 326.902C279.671 299.719 311.403 240.781 325.672 206.643C344.982 160.443 376.336 91.3415 416.969 91.3415Z" fill="#1B1B1B"/>
</svg>
