<svg width="4491" height="783" viewBox="0 0 4491 783" fill="none" xmlns="http://www.w3.org/2000/svg">
<path fill-rule="evenodd" clip-rule="evenodd" d="M582.831 236.864C560.688 183.896 524.734 104.67 478.14 104.67C431.546 104.67 395.592 183.896 373.449 236.864C357.087 276.004 320.699 343.576 279.363 374.742C255.559 352.863 235.133 314.476 225.479 291.383C211.151 257.11 187.887 205.846 157.738 205.846C127.589 205.846 104.325 257.11 89.9971 291.383C76.1501 324.506 40.1391 389.098 3.78818 391.302C2.5249 391.225 1.26186 391.224 0 391.302C1.26253 391.38 2.52556 391.378 3.78818 391.302C40.178 393.511 76.7594 458.215 90.6065 491.338C104.934 525.612 128.199 576.875 158.348 576.875C188.497 576.875 211.761 525.612 226.089 491.338C235.69 468.372 255.947 430.275 279.585 408.338C320.767 439.628 356.984 506.912 373.297 545.934C395.441 598.902 431.394 678.128 477.988 678.128C524.583 678.128 560.536 598.902 582.679 545.934C597.233 511.12 627.631 453.81 663.262 419.635C680.998 462.112 696.742 527.917 712.044 591.874C735.333 689.219 757.599 782.281 784.303 782.282C841.51 782.281 944.883 603.68 944.883 389.921C944.883 176.926 841.437 0.363912 784.297 0.363647C757.623 0.363911 735.384 93.0937 712.121 190.091C696.714 254.333 680.858 320.447 662.967 362.733C627.529 328.509 597.324 271.533 582.831 236.864ZM1711.42 127.137C1656.41 103.246 1592.52 91.3011 1519.74 91.3011H1248.88V674.678H1518.9C1592.24 674.678 1656.69 662.733 1712.25 638.842C1767.81 614.952 1810.87 581.06 1841.43 537.168C1871.99 492.72 1887.26 441.05 1887.26 382.156C1887.26 323.263 1871.71 271.87 1840.59 227.978C1810.04 184.086 1766.98 150.472 1711.42 127.137ZM1640.58 570.504C1604.47 587.172 1562.52 595.506 1514.74 595.506H1378.06V169.64H1513.07C1561.41 169.64 1603.91 178.53 1640.58 196.309C1677.25 213.533 1705.58 238.257 1725.59 270.481C1746.14 302.706 1756.42 340.487 1756.42 383.823C1756.42 427.16 1746.14 464.94 1725.59 497.165C1705.58 528.834 1677.25 553.28 1640.58 570.504ZM2441.96 474.663C2443.07 467.996 2443.63 458.551 2443.63 446.328C2443.63 404.658 2432.79 367.989 2411.12 336.32C2389.46 304.095 2359.73 279.371 2321.95 262.147C2284.17 244.924 2241.39 236.312 2193.61 236.312C2145.27 236.312 2101.66 245.479 2062.77 263.814C2023.87 282.149 1993.32 308.54 1971.09 342.987C1948.87 376.878 1937.76 416.881 1937.76 462.996C1937.76 509.11 1948.87 549.391 1971.09 583.838C1993.32 618.285 2023.87 644.954 2062.77 663.844C2102.21 682.179 2146.94 691.346 2196.94 691.346C2240.28 691.346 2279.45 684.679 2314.45 671.345C2350.01 657.455 2378.62 638.564 2400.29 614.674C2421.96 590.227 2435.02 562.448 2439.46 531.334L2328.62 524.667C2323.06 550.78 2308.62 572.171 2285.28 588.839C2261.95 605.506 2234.17 613.84 2201.94 613.84C2161.94 613.84 2129.16 601.339 2103.6 576.338C2078.04 551.336 2064.71 517.444 2063.6 474.663H2441.96ZM2285.28 333.819C2309.17 356.043 2321.12 383.823 2321.12 417.159L2064.43 417.992C2067.21 382.99 2080.54 354.654 2104.44 332.986C2128.33 311.318 2158.33 300.484 2194.44 300.484C2231.11 300.484 2261.39 311.595 2285.28 333.819ZM2764.42 691.346C2713.86 691.346 2668.3 682.457 2627.74 664.678C2587.18 646.343 2554.96 619.952 2531.07 585.505C2507.73 551.058 2496.07 510.777 2496.07 464.663C2496.07 418.548 2507.73 378.267 2531.07 343.82C2554.4 309.373 2586.35 282.982 2626.91 264.648C2667.47 245.757 2713.03 236.312 2763.59 236.312C2810.81 236.312 2852.76 244.09 2889.43 259.647C2926.65 275.204 2956.1 296.872 2977.77 324.652C2999.44 352.432 3011.66 383.545 3014.44 417.992L2896.93 422.993C2893.04 390.768 2878.6 364.377 2853.59 343.82C2829.15 322.707 2799.14 312.151 2763.59 312.151C2736.36 312.151 2711.92 318.54 2690.25 331.319C2669.14 344.098 2652.47 362.155 2640.24 385.49C2628.58 408.269 2622.74 433.827 2622.74 462.162C2622.74 491.053 2628.58 516.889 2640.24 539.668C2652.47 561.892 2669.41 579.393 2691.08 592.172C2713.3 604.951 2738.31 611.34 2766.09 611.34C2802.2 611.34 2832.76 601.339 2857.76 581.338C2883.32 561.336 2898.04 535.223 2901.93 502.999L3018.61 506.332C3015.83 540.779 3003.6 572.171 2981.94 600.506C2960.27 628.286 2930.82 650.51 2893.6 667.178C2856.37 683.29 2813.31 691.346 2764.42 691.346ZM3573.23 474.663C3574.34 467.996 3574.9 458.551 3574.9 446.328C3574.9 404.658 3564.06 367.989 3542.4 336.32C3520.73 304.095 3491 279.371 3453.22 262.147C3415.44 244.924 3372.66 236.312 3324.88 236.312C3276.54 236.312 3232.93 245.479 3194.04 263.814C3155.14 282.149 3124.59 308.54 3102.36 342.987C3080.14 376.878 3069.03 416.881 3069.03 462.996C3069.03 509.11 3080.14 549.391 3102.36 583.838C3124.59 618.285 3155.14 644.954 3194.04 663.844C3233.48 682.179 3278.21 691.346 3328.21 691.346C3371.55 691.346 3410.72 684.679 3445.72 671.345C3481.28 657.455 3509.89 638.564 3531.56 614.674C3553.23 590.227 3566.29 562.448 3570.73 531.334L3459.89 524.667C3454.33 550.78 3439.89 572.171 3416.55 588.839C3393.22 605.506 3365.44 613.84 3333.21 613.84C3293.21 613.84 3260.43 601.339 3234.87 576.338C3209.31 551.336 3195.98 517.444 3194.87 474.663H3573.23ZM3416.55 333.819C3440.44 356.043 3452.39 383.823 3452.39 417.159L3195.7 417.992C3198.48 382.99 3211.81 354.654 3235.71 332.986C3259.6 311.318 3289.6 300.484 3325.71 300.484C3362.38 300.484 3392.66 311.595 3416.55 333.819ZM3933.83 244.646C3991.06 244.646 4036.06 261.87 4068.84 296.317C4101.62 330.764 4118.01 378.267 4118.01 438.827V674.678H3994.67V452.162C3994.67 412.159 3984.95 381.045 3965.5 358.821C3946.61 336.042 3919.94 324.652 3885.49 324.652C3851.05 324.652 3823.82 336.042 3803.82 358.821C3784.38 381.045 3774.65 412.436 3774.65 452.995V674.678H3651.31V252.98H3772.99L3771.32 349.654H3777.15C3787.71 316.874 3806.88 291.316 3834.66 272.981C3862.44 254.091 3895.49 244.646 3933.83 244.646ZM4281.1 638.842C4310.55 667.178 4350.27 681.345 4400.28 681.345C4428.61 681.345 4458.06 678.568 4488.62 673.012L4490.29 585.505C4474.17 589.394 4458.06 591.339 4441.95 591.339C4415.83 591.339 4395.56 583.005 4381.11 566.337C4367.22 549.669 4360.28 525.778 4360.28 494.665V328.819H4490.29V252.98H4331.11V248.813C4346.11 244.924 4357.22 235.479 4364.44 220.478C4372.22 204.921 4376.11 184.642 4376.11 159.64V141.305H4251.1V199.643C4251.1 216.866 4246.93 230.2 4238.6 239.646C4230.27 248.535 4218.32 252.98 4202.76 252.98H4156.93V328.819H4237.77V510.499C4237.77 567.17 4252.21 609.951 4281.1 638.842Z" fill="url(#paint0_linear_61_842)"/>
<defs>
<linearGradient id="paint0_linear_61_842" x1="1339.36" y1="391.324" x2="4514.15" y2="111.973" gradientUnits="userSpaceOnUse">
<stop stop-color="#CAB0FF"/>
<stop offset="0.458959" stop-color="#9969FF"/>
<stop offset="1" stop-color="#5C1FFF" stop-opacity="0.97"/>
</linearGradient>
</defs>
</svg>
